<?xml version="1.0" encoding="UTF-8"?>
<svg xmlns="http://www.w3.org/2000/svg" xmlns:xlink="http://www.w3.org/1999/xlink" width="128px" height="128px" viewBox="0 0 128 128" version="1.1">
<g id="surface1">
<path style=" stroke:none;fill-rule:nonzero;fill:rgb(40.392157%,22.745098%,71.764708%);fill-opacity:1;" d="M 111.898438 30.601562 L 96.101562 30.601562 L 112 15.375 L 96.273438 0 L 74.023438 0 L 89.949219 15.226562 L 73.625 30.601562 L 54.75 30.601562 L 71 15.375 L 54.949219 0 L 32.324219 0 L 48.25 15.226562 L 31.898438 30.601562 L 15.898438 30.601562 L 32.148438 15.375 L 16.050781 0 L 0 0 L 0 128 L 128 128 L 128 0 L 112.300781 0 L 128 15.324219 Z M 111.300781 111.300781 L 16.699219 111.300781 L 16.699219 94.601562 L 111.300781 94.601562 Z M 111.300781 80.699219 L 16.699219 80.699219 L 16.699219 64 L 111.300781 64 Z M 111.300781 80.699219 "/>
</g>
</svg>
